<svg width="364" height="251" viewBox="0 0 364 251" fill="none" xmlns="http://www.w3.org/2000/svg">
<g filter="url(#filter0_d_2_588)">
<rect x="79.9956" y="35" width="204" height="91" rx="12" fill="white"/>
</g>
<path d="M191.621 68.1023V70.869C191.628 71.0545 191.708 71.2297 191.844 71.3569C191.979 71.4841 192.159 71.5532 192.344 71.5492H198.771L191.366 82.1452C190.898 82.8263 190.898 83.5919 190.898 84.0175V86.8258C190.898 87.2513 191.366 87.6768 191.792 87.4641C195.962 85.2086 201.026 85.4214 204.813 87.4215C205.281 87.6765 205.706 87.2087 205.706 86.7832V83.847C205.664 83.464 205.536 83.0384 205.068 82.7831C202.941 81.5919 200.43 81.2516 198.047 81.2942L204.43 72.1876C205.026 71.3361 205.366 70.8258 205.366 70.4428V68.1023C205.359 67.9166 205.279 67.7413 205.143 67.614C205.008 67.4866 204.828 67.4175 204.642 67.4214H192.302C192.211 67.4166 192.12 67.4309 192.036 67.4634C191.951 67.4959 191.874 67.5459 191.81 67.6101C191.745 67.6743 191.695 67.7513 191.663 67.8361C191.63 67.9209 191.616 68.0116 191.621 68.1023Z" fill="#C4C4C4"/>
<path d="M142.897 88.0176H146.641C146.825 88.0241 147.005 87.9627 147.146 87.8449C147.288 87.7271 147.38 87.5614 147.407 87.3794V77.1663C147.407 77.0996 147.407 77.0322 147.407 76.9642C147.405 74.7324 147.401 71.847 150.003 71.847C152.378 71.847 152.339 74.4343 152.308 76.5029C152.304 76.7318 152.301 76.9543 152.301 77.1663V87.3794C152.301 87.7199 152.599 88.0177 152.982 88.0603H156.727C156.912 88.0642 157.092 87.995 157.227 87.8677C157.363 87.7403 157.443 87.565 157.45 87.3794V77.1663C157.45 77.0688 157.45 76.9673 157.449 76.8627C157.446 75.7799 157.441 74.3566 157.79 73.4642C157.972 73.0104 158.282 72.6195 158.683 72.3398C159.083 72.06 159.557 71.9035 160.046 71.8896C161.152 71.8896 161.961 72.2726 162.259 73.5492C162.392 74.1503 162.368 75.5376 162.352 76.4977C162.348 76.761 162.344 76.9923 162.344 77.1663V87.3794C162.344 87.7199 162.642 88.0177 163.025 88.0603H166.727C166.913 88.0642 167.093 87.995 167.228 87.8677C167.363 87.7403 167.443 87.565 167.451 87.3794V75.2089C167.451 74.8988 167.456 74.5831 167.462 74.2649C167.494 72.4436 167.528 70.5428 166.514 69.1663C165.45 67.6768 163.748 67.0385 162.174 67.0385C159.961 67.0385 157.875 68.1875 156.982 70.613C155.96 68.1875 154.471 67.0385 152.131 67.0385C149.833 67.0385 148.088 68.1875 147.194 70.613H147.109V68.1023C147.096 67.9303 147.018 67.7695 146.892 67.6515C146.766 67.5335 146.601 67.4666 146.428 67.464H142.939C142.753 67.4601 142.573 67.5293 142.438 67.6566C142.303 67.7839 142.223 67.9593 142.216 68.1449V87.3793C142.243 87.5456 142.325 87.6983 142.448 87.8136C142.571 87.929 142.729 88.0006 142.897 88.0176Z" fill="#C4C4C4"/>
<path fill-rule="evenodd" clip-rule="evenodd" d="M224.6 77.8898C224.6 71.8046 221.579 67.0385 216.004 67.0385C210.557 67.0385 207.536 71.7194 207.579 77.7195C207.579 83.6771 210.557 88.4431 216.004 88.4431C221.281 88.4431 224.6 83.7623 224.6 77.8898ZM213.068 77.1238C213.068 74.7834 213.238 70.996 216.004 70.996C217.196 70.996 218.047 71.5065 218.472 72.8683C218.941 74.4004 219.026 76.3577 219.026 77.9749C219.026 80.443 218.856 84.4857 215.962 84.4857C213.066 84.4857 213.068 79.6028 213.068 77.2229L213.068 77.1238Z" fill="#C4C4C4"/>
<path d="M228.047 88.0176H231.792C231.98 88.0158 232.162 87.9463 232.302 87.8211C232.443 87.6959 232.534 87.524 232.558 87.337V76.9533C232.558 75.6341 232.643 74.4848 233.153 73.2936C233.579 72.3573 234.43 71.7617 235.324 71.7617C237.711 71.7617 237.687 74.3532 237.667 76.4246C237.666 76.6056 237.664 76.7826 237.664 76.9536V87.4216C237.707 87.7194 238.005 87.9746 238.345 88.0172H242.09C242.263 88.0249 242.432 87.9682 242.566 87.8583C242.7 87.7483 242.788 87.5927 242.813 87.4216V75.2937C242.813 73.4213 242.813 70.8255 241.835 69.2936C240.771 67.6337 239.111 67.0382 237.452 67.0382C234.856 67.0382 233.409 68.2722 232.345 70.9106H232.26V67.9744C232.222 67.8206 232.135 67.6834 232.012 67.5836C231.889 67.4838 231.737 67.4267 231.579 67.4211H228.09C227.912 67.4225 227.742 67.4878 227.609 67.6051C227.476 67.7224 227.39 67.8837 227.366 68.0594V87.3367C227.366 87.6772 227.664 87.975 228.047 88.0176Z" fill="#C4C4C4"/>
<path fill-rule="evenodd" clip-rule="evenodd" d="M185.145 88.1614C185.306 88.1461 185.457 88.081 185.578 87.9751L185.58 87.975C185.852 87.7484 186.199 87.4521 186.569 87.1355C187.243 86.5604 187.995 85.9185 188.516 85.5068C188.814 85.2941 188.771 84.8685 188.516 84.5281C188.434 84.4102 188.351 84.2954 188.269 84.1816C187.671 83.3507 187.112 82.5733 187.112 81.0387V75.2088C187.112 75.014 187.113 74.8202 187.114 74.6277C187.126 72.3821 187.138 70.3084 185.452 68.7406C184.005 67.3363 181.622 66.8683 179.793 66.8683C176.218 66.8683 172.26 68.1875 171.409 72.6131C171.324 73.0813 171.665 73.294 171.963 73.3791L175.58 73.7621C175.92 73.7621 176.133 73.4216 176.218 73.0812C176.516 71.5491 177.793 70.8258 179.239 70.8258C180.005 70.8258 180.856 71.1235 181.324 71.8044C181.813 72.4816 181.803 73.3919 181.794 74.2112C181.793 74.3186 181.792 74.4244 181.792 74.5279V74.9959C181.439 75.0375 181.068 75.0767 180.686 75.1172C178.716 75.3258 176.439 75.567 174.728 76.3151C172.387 77.3366 170.727 79.3791 170.727 82.443C170.727 86.3154 173.196 88.2729 176.345 88.2729C178.983 88.2729 180.472 87.6339 182.515 85.5494C182.614 85.6923 182.705 85.8253 182.79 85.9513C183.291 86.6882 183.631 87.188 184.685 88.0602C184.824 88.1412 184.985 88.1766 185.145 88.1614ZM181.791 79.0545C181.791 78.9789 181.791 78.9028 181.791 78.826V78.0181C179.068 78.0181 176.217 78.6139 176.217 81.8054C176.217 83.4226 177.068 84.5289 178.514 84.5289C179.578 84.5289 180.515 83.8906 181.11 82.8267C181.795 81.5769 181.793 80.4041 181.791 79.0545Z" fill="#C4C4C4"/>
<path fill-rule="evenodd" clip-rule="evenodd" d="M135.953 88.1614C136.113 88.1461 136.264 88.081 136.386 87.9751L136.387 87.975C136.659 87.7484 137.006 87.4521 137.377 87.1355C138.05 86.5604 138.802 85.9185 139.323 85.5068C139.621 85.2941 139.579 84.8685 139.323 84.5281C139.241 84.4102 139.159 84.2954 139.077 84.1816C138.479 83.3507 137.919 82.5733 137.919 81.0387V75.2088C137.919 75.014 137.92 74.8202 137.921 74.6277C137.933 72.3821 137.945 70.3084 136.259 68.7406C134.813 67.3363 132.43 66.8683 130.6 66.8683C127.025 66.8683 123.068 68.1875 122.217 72.6131C122.132 73.0813 122.472 73.294 122.77 73.3791L126.387 73.7621C126.728 73.7621 126.94 73.4216 127.025 73.0812C127.323 71.5491 128.6 70.8258 130.047 70.8258C130.812 70.8258 131.663 71.1235 132.131 71.8044C132.62 72.4816 132.61 73.3919 132.602 74.2112C132.6 74.3186 132.599 74.4244 132.599 74.5279V74.9959C132.246 75.0375 131.876 75.0767 131.493 75.1172C129.524 75.3258 127.246 75.567 125.535 76.3151C123.194 77.3366 121.535 79.3791 121.535 82.443C121.535 86.3154 124.003 88.2729 127.152 88.2729C129.79 88.2729 131.28 87.6339 133.322 85.5494C133.422 85.6923 133.512 85.8253 133.598 85.9513C134.099 86.6882 134.439 87.188 135.492 88.0602C135.631 88.1412 135.792 88.1766 135.953 88.1614ZM132.641 79.0546C132.641 78.979 132.641 78.9028 132.641 78.826V78.0181C129.918 78.0181 127.066 78.6139 127.066 81.8054C127.066 83.4226 127.917 84.5289 129.364 84.5289C130.428 84.5289 131.365 83.8906 131.96 82.8267C132.645 81.5769 132.643 80.4041 132.641 79.0546Z" fill="#C4C4C4"/>
<path d="M199.706 92.0602C198.812 90.9113 193.748 91.507 191.493 91.8049C190.812 91.89 190.684 91.2943 191.322 90.8687C195.365 88.0176 201.961 88.8686 202.727 89.8048C203.493 90.741 202.514 97.379 198.726 100.528C198.131 100.996 197.577 100.741 197.833 100.103L197.877 99.9915C198.749 97.8147 200.584 93.231 199.706 92.0602Z" fill="#C4C4C4"/>
<path d="M196.77 95.4223C189.748 100.614 179.535 103.38 170.726 103.38C158.386 103.38 147.322 98.8266 138.896 91.2521C138.258 90.6565 138.811 89.8478 139.619 90.3159C148.683 95.5925 159.875 98.7416 171.45 98.7416C179.237 98.7416 187.833 97.1246 195.748 93.7627C196.939 93.2946 197.919 94.5712 196.77 95.4223Z" fill="#C4C4C4"/>
<defs>
<filter id="filter0_d_2_588" x="-0.00439453" y="0" width="364" height="251" filterUnits="userSpaceOnUse" color-interpolation-filters="sRGB">
<feFlood flood-opacity="0" result="BackgroundImageFix"/>
<feColorMatrix in="SourceAlpha" type="matrix" values="0 0 0 0 0 0 0 0 0 0 0 0 0 0 0 0 0 0 127 0" result="hardAlpha"/>
<feOffset dy="45"/>
<feGaussianBlur stdDeviation="40"/>
<feColorMatrix type="matrix" values="0 0 0 0 0 0 0 0 0 0 0 0 0 0 0 0 0 0 0.04 0"/>
<feBlend mode="normal" in2="BackgroundImageFix" result="effect1_dropShadow_2_588"/>
<feBlend mode="normal" in="SourceGraphic" in2="effect1_dropShadow_2_588" result="shape"/>
</filter>
</defs>
</svg>
